<?xml version="1.0" encoding="utf-8"?>
<!-- Generator: Adobe Illustrator 22.1.0, SVG Export Plug-In . SVG Version: 6.00 Build 0)  -->
<svg version="1.1" id="Layer_1" xmlns="http://www.w3.org/2000/svg" xmlns:xlink="http://www.w3.org/1999/xlink" x="0px" y="0px"
	 viewBox="0 0 172 21" style="enable-background:new 0 0 172 21;" xml:space="preserve">
<style type="text/css">
	.st0{fill-rule:evenodd;clip-rule:evenodd;}
</style>
<g>
	<g>
		<path class="st0" d="M14.3,6.8l-3.4-6.3L7.5,6.8l-7,1.4l4.8,5.2l-0.9,7.1l6.4-3l6.4,3l-0.9-7.1l4.8-5.2L14.3,6.8z M45.4,6.8
			L42,0.5l-3.4,6.3l-7,1.4l4.8,5.2l-0.9,7.1l6.4-3l6.4,3l-0.9-7.1l4.8-5.2L45.4,6.8z M77.5,6.8l-3.4-6.3l-3.4,6.3l-7,1.4l4.8,5.2
			l-0.9,7.1l6.4-3l6.4,3l-0.9-7.1l4.8-5.2L77.5,6.8z M106.5,9.5v1h66v-1H106.5z M141.5,17.5h31v-1h-31V17.5z"/>
	</g>
</g>
</svg>
